<?xml version="1.0" encoding="UTF-8"?>
<svg version="1.1" xmlns="http://www.w3.org/2000/svg" width="512" height="512">
<path d="M0 0 C1.01823853 0.00215515 2.03647705 0.0043103 3.08557129 0.00653076 C17.7097884 0.05623391 32.00304638 0.37042012 46.375 3.3125 C47.37160645 3.50585938 48.36821289 3.69921875 49.39501953 3.8984375 C88.01368568 11.52914208 124.14015454 27.25047736 155.375 51.3125 C156.18710937 51.93253906 156.99921875 52.55257812 157.8359375 53.19140625 C174.90108372 66.51514029 191.26144896 82.13175144 204.10107422 99.59423828 C205.39750666 101.34285682 206.72788718 103.06078803 208.06640625 104.77734375 C215.93067241 114.9920598 222.3161092 125.94975258 228.375 137.3125 C229.03846436 138.55314209 229.03846436 138.55314209 229.71533203 139.81884766 C241.23204842 161.72199262 248.9030584 186.01309889 253.375 210.3125 C253.53581055 211.11316895 253.69662109 211.91383789 253.86230469 212.73876953 C259.73561688 242.76532126 258.6851142 277.46465824 252.375 307.3125 C252.15537598 308.35438477 251.93575195 309.39626953 251.70947266 310.46972656 C246.20678448 335.69719578 237.03935749 359.32108908 224.75 382 C224.31913086 382.80115234 223.88826172 383.60230469 223.44433594 384.42773438 C215.48917834 398.75541083 215.48917834 398.75541083 210.375 401.3125 C209.38693359 401.11720703 209.38693359 401.11720703 208.37890625 400.91796875 C205.25915342 400.38386707 203.42976138 400.37161692 200.375 401.3125 C195.92766347 405.24574338 192.72553562 410.46120364 189.375 415.3125 C188.715 415.9725 188.055 416.6325 187.375 417.3125 C187.71125455 419.22746584 187.71125455 419.22746584 188.375 421.3125 C188.88386529 425.97570818 189.03359461 429.25874863 186.5 433.3125 C183.5135714 436.12325633 181.98916677 436.43463871 178 436.375 C177.22914063 436.36597656 176.45828125 436.35695313 175.6640625 436.34765625 C174.53097656 436.33025391 174.53097656 436.33025391 173.375 436.3125 C168.31817498 436.3125 166.71165274 438.35090836 163.3125 441.6875 C157.62690443 447.14456371 157.62690443 447.14456371 154.375 449.3125 C154.601875 450.323125 154.82875 451.33375 155.0625 452.375 C155.42034345 456.88382751 155.09486955 459.73494431 152.375 463.3125 C144.72562262 470.16038011 135.28040199 475.25752135 126.375 480.3125 C125.30765625 480.92013184 125.30765625 480.92013184 124.21875 481.54003906 C98.0205767 496.28804243 69.08235906 505.8198158 39.375 510.3125 C38.25254883 510.48910156 37.13009766 510.66570312 35.97363281 510.84765625 C24.35994336 512.50464124 12.84360984 512.7080238 1.125 512.6875 C0.1173056 512.68795319 -0.89038879 512.68840637 -1.92861938 512.68887329 C-18.42392144 512.66713863 -34.4519871 511.82589858 -50.625 508.3125 C-52.12474365 508.00046631 -52.12474365 508.00046631 -53.65478516 507.68212891 C-54.63108887 507.45315918 -55.60739258 507.22418945 -56.61328125 506.98828125 C-57.48122314 506.78759033 -58.34916504 506.58689941 -59.2434082 506.38012695 C-62.51385141 504.91404308 -63.79068291 503.3858295 -65.625 500.3125 C-66.015625 496.76171875 -66.015625 496.76171875 -65.875 493 C-65.83890625 491.74574219 -65.8028125 490.49148438 -65.765625 489.19921875 C-65.71921875 488.24660156 -65.6728125 487.29398437 -65.625 486.3125 C-66.17766037 486.32360306 -66.73032074 486.33470612 -67.29972839 486.34614563 C-73.05845965 486.45687269 -78.81688796 486.53222184 -84.57641602 486.5871582 C-86.72497849 486.61228285 -88.87345565 486.64638861 -91.02172852 486.68969727 C-94.11235612 486.75043792 -97.20185263 486.77873044 -100.29296875 486.80078125 C-101.25148239 486.82658768 -102.20999603 486.8523941 -103.19755554 486.87898254 C-107.61514352 486.88083509 -109.96610191 486.74006083 -113.74023438 484.29101562 C-116.12611067 480.52058936 -116.26399083 477.48826091 -116.11328125 473.16796875 C-116.10266914 472.0132885 -116.10266914 472.0132885 -116.09184265 470.83528137 C-116.06396925 468.38917697 -116.00125137 465.94540616 -115.9375 463.5 C-115.91240768 461.83662173 -115.88959613 460.17320738 -115.86914062 458.50976562 C-115.81416671 454.44311843 -115.72794927 450.37820411 -115.625 446.3125 C-116.17766037 446.32360306 -116.73032074 446.33470612 -117.29972839 446.34614563 C-123.05845965 446.45687269 -128.81688796 446.53222184 -134.57641602 446.5871582 C-136.72497849 446.61228285 -138.87345565 446.64638861 -141.02172852 446.68969727 C-144.11235612 446.75043792 -147.20185263 446.77873044 -150.29296875 446.80078125 C-151.25148239 446.82658768 -152.20999603 446.8523941 -153.19755554 446.87898254 C-157.61514352 446.88083509 -159.96610191 446.74006083 -163.74023438 444.29101562 C-166.12611067 440.52058936 -166.26399083 437.48826091 -166.11328125 433.16796875 C-166.10620651 432.39818192 -166.09913177 431.62839508 -166.09184265 430.83528137 C-166.06396925 428.38917697 -166.00125137 425.94540616 -165.9375 423.5 C-165.91240768 421.83662173 -165.88959613 420.17320738 -165.86914062 418.50976562 C-165.81416671 414.44311843 -165.72794927 410.37820411 -165.625 406.3125 C-166.30294113 406.32360306 -166.98088226 406.33470612 -167.67936707 406.34614563 C-174.73573634 406.45676787 -181.7918593 406.53217988 -188.84887695 406.5871582 C-191.48244227 406.61230157 -194.11593782 406.64642084 -196.74926758 406.68969727 C-200.53484309 406.7503521 -204.31949598 406.7787127 -208.10546875 406.80078125 C-209.8713459 406.83949089 -209.8713459 406.83949089 -211.67289734 406.87898254 C-220.77972932 406.88210696 -220.77972932 406.88210696 -223.8659668 403.93823242 C-225.76191425 401.10812626 -226.30274384 399.68810547 -226.25 396.3125 C-226.26289063 395.4875 -226.27578125 394.6625 -226.2890625 393.8125 C-225.28468278 390.03130576 -223.73309476 388.68970972 -220.625 386.3125 C-217.17406167 385.62399455 -213.79998483 385.72979802 -210.29296875 385.82421875 C-209.30122147 385.83129349 -208.30947418 385.83836823 -207.28767395 385.84565735 C-204.12850658 385.87358567 -200.97112918 385.9363228 -197.8125 386 C-195.66734335 386.02508482 -193.52215885 386.04789766 -191.37695312 386.06835938 C-186.12506234 386.11915136 -180.87702791 386.21700858 -175.625 386.3125 C-175.625 379.7125 -175.625 373.1125 -175.625 366.3125 C-178.0848938 366.35177612 -178.0848938 366.35177612 -180.59448242 366.3918457 C-186.6791418 366.48234963 -192.76374169 366.53975142 -198.84887695 366.5871582 C-201.48244227 366.61230157 -204.11593782 366.64642084 -206.74926758 366.68969727 C-210.53484309 366.7503521 -214.31949598 366.7787127 -218.10546875 366.80078125 C-219.8713459 366.83949089 -219.8713459 366.83949089 -221.67289734 366.87898254 C-230.77972932 366.88210696 -230.77972932 366.88210696 -233.8659668 363.93823242 C-235.76191425 361.10812626 -236.30274384 359.68810547 -236.25 356.3125 C-236.26289063 355.4875 -236.27578125 354.6625 -236.2890625 353.8125 C-235.30753462 350.1173362 -233.59368594 348.68769299 -230.625 346.3125 C-227.70113709 345.87349572 -225.38459055 345.72291103 -222.48046875 345.82421875 C-221.71068192 345.83129349 -220.94089508 345.83836823 -220.14778137 345.84565735 C-217.70167697 345.87353075 -215.25790616 345.93624863 -212.8125 346 C-211.14912173 346.02509232 -209.48570738 346.04790387 -207.82226562 346.06835938 C-203.7548998 346.11907466 -199.69254472 346.21691801 -195.625 346.3125 C-195.625 339.7125 -195.625 333.1125 -195.625 326.3125 C-198.81542969 326.37050781 -202.00585938 326.42851562 -205.29296875 326.48828125 C-208.38742589 326.52728946 -211.48185551 326.55764122 -214.57641602 326.5871582 C-216.72497849 326.61228285 -218.87345565 326.64638861 -221.02172852 326.68969727 C-224.11235612 326.75043792 -227.20185263 326.77873044 -230.29296875 326.80078125 C-231.25148239 326.82658768 -232.20999603 326.8523941 -233.19755554 326.87898254 C-237.8538085 326.88093518 -239.9300988 326.84399148 -243.72924805 323.93823242 C-245.78038488 321.09728243 -246.30410293 319.77508768 -246.25 316.3125 C-246.26289063 315.4875 -246.27578125 314.6625 -246.2890625 313.8125 C-245.625 311.3125 -245.625 311.3125 -240.625 306.3125 C-232.375 306.3125 -224.125 306.3125 -215.625 306.3125 C-215.625 283.2125 -215.625 260.1125 -215.625 236.3125 C-227.175 236.3125 -238.725 236.3125 -250.625 236.3125 C-255.625 231.3125 -255.625 231.3125 -256.2890625 228.8125 C-256.26972656 227.575 -256.26972656 227.575 -256.25 226.3125 C-256.26289063 225.4875 -256.27578125 224.6625 -256.2890625 223.8125 C-255.30753462 220.1173362 -253.59368594 218.68769299 -250.625 216.3125 C-247.70113709 215.87349572 -245.38459055 215.72291103 -242.48046875 215.82421875 C-241.3257885 215.83483086 -241.3257885 215.83483086 -240.14778137 215.84565735 C-237.70167697 215.87353075 -235.25790616 215.93624863 -232.8125 216 C-231.14912173 216.02509232 -229.48570738 216.04790387 -227.82226562 216.06835938 C-223.75561843 216.12333329 -219.69070411 216.20955073 -215.625 216.3125 C-215.64165459 215.48350945 -215.64165459 215.48350945 -215.65864563 214.63777161 C-215.76937269 208.87904035 -215.84472184 203.12061204 -215.8996582 197.36108398 C-215.92478285 195.21252151 -215.95888861 193.06404435 -216.00219727 190.91577148 C-216.06293792 187.82514388 -216.09123044 184.73564737 -216.11328125 181.64453125 C-216.13908768 180.68601761 -216.1648941 179.72750397 -216.19148254 178.73994446 C-216.19333509 174.32235648 -216.05256083 171.97139809 -213.60351562 168.19726562 C-209.83308936 165.81138933 -206.80076091 165.67350917 -202.48046875 165.82421875 C-201.3257885 165.83483086 -201.3257885 165.83483086 -200.14778137 165.84565735 C-197.70167697 165.87353075 -195.25790616 165.93624863 -192.8125 166 C-191.14912173 166.02509232 -189.48570738 166.04790387 -187.82226562 166.06835938 C-183.7548998 166.11907466 -179.69254472 166.21691801 -175.625 166.3125 C-175.625 159.7125 -175.625 153.1125 -175.625 146.3125 C-179.32783203 146.39951172 -179.32783203 146.39951172 -183.10546875 146.48828125 C-185.50493154 146.52731111 -187.90435853 146.55765013 -190.30395508 146.5871582 C-191.96752839 146.61225347 -193.63099196 146.64633796 -195.29418945 146.68969727 C-197.68989153 146.7505746 -200.08413251 146.77875769 -202.48046875 146.80078125 C-203.2202446 146.82658768 -203.96002045 146.8523941 -204.72221375 146.87898254 C-208.72019142 146.88113841 -210.43072443 146.46793644 -213.5925293 143.93823242 C-215.79814331 141.08881756 -216.30546828 139.86246962 -216.25 136.3125 C-216.26289063 135.4875 -216.27578125 134.6625 -216.2890625 133.8125 C-215.30998947 130.126578 -213.58106606 128.6832307 -210.625 126.3125 C-207.7862599 125.94478755 -205.60679849 125.82619196 -202.8125 126 C-202.11962891 126.02255859 -201.42675781 126.04511719 -200.71289062 126.06835938 C-199.01598427 126.12687339 -197.32020139 126.2165452 -195.625 126.3125 C-195.65118408 125.27843018 -195.67736816 124.24436035 -195.7043457 123.17895508 C-195.79506423 119.33070641 -195.85232659 115.4825516 -195.8996582 111.63354492 C-195.92475347 109.96997161 -195.95883796 108.30650804 -196.00219727 106.64331055 C-196.0630746 104.24760847 -196.09125769 101.85336749 -196.11328125 99.45703125 C-196.13908768 98.7172554 -196.1648941 97.97747955 -196.19148254 97.21528625 C-196.1935076 93.45988418 -195.72648914 91.46203714 -193.60351562 88.33398438 C-189.84020587 85.77986923 -186.86955276 85.67110943 -182.48046875 85.82421875 C-181.71068192 85.83129349 -180.94089508 85.83836823 -180.14778137 85.84565735 C-177.70167697 85.87353075 -175.25790616 85.93624863 -172.8125 86 C-171.14912173 86.02509232 -169.48570738 86.04790387 -167.82226562 86.06835938 C-163.75561843 86.12333329 -159.69070411 86.20955073 -155.625 86.3125 C-155.69569702 84.87583984 -155.69569702 84.87583984 -155.76782227 83.41015625 C-155.93185952 79.82516463 -156.03443165 76.24049641 -156.11938477 72.65283203 C-156.16439461 71.10636469 -156.22563085 69.56027504 -156.30395508 68.01513672 C-156.93179209 55.30246314 -156.93179209 55.30246314 -153.88916016 50.66918945 C-151.58538648 48.56642789 -149.28306855 46.93925954 -146.625 45.3125 C-145.54424194 44.54945557 -145.54424194 44.54945557 -144.44165039 43.77099609 C-142.29390225 42.26903615 -140.10548708 40.87572264 -137.875 39.5 C-136.65345215 38.741427 -136.65345215 38.741427 -135.40722656 37.9675293 C-109.27918223 21.97467778 -81.38072453 10.95634155 -51.4375 4.5625 C-50.51267822 4.36366211 -49.58785645 4.16482422 -48.63500977 3.95996094 C-32.4283142 0.66808618 -16.49462039 -0.06280274 0 0 Z " fill="#B5BBCE" transform="translate(255.625,-0.3125)"/>
<path d="M0 0 C142.56 0 285.12 0 432 0 C430.83744875 20.92592241 430.83744875 20.92592241 429.1875 29.6875 C429.00864258 30.66460937 428.82978516 31.64171875 428.64550781 32.6484375 C423.27123996 61.24823199 412.8677499 89.05643951 397.1652832 113.58032227 C394.00876498 118.64232548 392.06047689 121.98705209 393 128 C393.96873032 129.35622245 394.96434215 130.69417053 396 132 C395.38166887 136.35887335 392.72686039 139.27679957 390.0625 142.625 C389.60681641 143.21023438 389.15113281 143.79546875 388.68164062 144.3984375 C386.87345161 146.70698922 385.07521261 148.92478739 383 151 C383.33625455 152.91496584 383.33625455 152.91496584 384 155 C384.50886529 159.66320818 384.65859461 162.94624863 382.125 167 C379.1385714 169.81075633 377.61416677 170.12213871 373.625 170.0625 C372.85414063 170.05347656 372.08328125 170.04445313 371.2890625 170.03515625 C370.15597656 170.01775391 370.15597656 170.01775391 369 170 C363.94317498 170 362.33665274 172.03840836 358.9375 175.375 C353.25190443 180.83206371 353.25190443 180.83206371 350 183 C347.71602968 182.65394389 346.06590963 182.03295481 344 181 C339.56704926 180.36672132 336.61445914 180.04338499 332.69921875 182.36328125 C330.94121271 183.71753471 329.19222825 185.08353004 327.44921875 186.45703125 C291.80209841 213.70385843 242.33710281 226.51657616 198.0625 226.3125 C197.31684784 226.31200653 196.57119568 226.31151306 195.802948 226.31100464 C180.62594934 226.28053563 164.73161916 225.93139887 150 222 C149.97421875 220.89140625 149.9484375 219.7828125 149.921875 218.640625 C149.86558344 217.17704453 149.80823633 215.71350438 149.75 214.25 C149.73582031 213.52039063 149.72164062 212.79078125 149.70703125 212.0390625 C149.5471087 208.52076649 149.29333564 206.38700584 147.140625 203.546875 C144.05454527 201.31678819 141.50854566 200.87255201 137.80395508 200.79467773 C136.96331009 200.77473251 136.1226651 200.75478729 135.25654602 200.73423767 C134.35333115 200.71752518 133.45011627 200.70081268 132.51953125 200.68359375 C131.59154221 200.66281265 130.66355316 200.64203156 129.70744324 200.62062073 C126.7425376 200.55522677 123.77754328 200.49628738 120.8125 200.4375 C118.8027252 200.39430513 116.79295937 200.35069053 114.78320312 200.30664062 C109.85555833 200.19876571 104.92784639 200.09961668 100 200 C100 193.4 100 186.8 100 180 C104.44335938 179.70703125 104.44335938 179.70703125 108.88671875 179.4140625 C112.61644059 178.91801417 115.92615192 178.38066182 118.3125 175.3125 C119.28978039 172.02528415 119.36537233 169.41014174 119 166 C116.78136971 163.09282927 115.48055071 162.16018357 112 161 C109.99158335 160.88293767 107.97964011 160.82324033 105.96801758 160.79467773 C104.72695755 160.77473251 103.48589752 160.75478729 102.20722961 160.73423767 C100.8529981 160.71725473 99.49876527 160.70037587 98.14453125 160.68359375 C96.75875741 160.66301772 95.37298975 160.64202108 93.98722839 160.62062073 C90.34259047 160.56546699 86.69789654 160.51602826 83.05316162 160.46777344 C79.3329165 160.41750944 75.61275257 160.36184896 71.89257812 160.30664062 C64.59512087 160.19914101 57.29759603 160.09767793 50 160 C49.98598145 158.48647949 49.98598145 158.48647949 49.97167969 156.94238281 C49.9317523 153.19226224 49.86598719 149.44295971 49.79248047 145.69335938 C49.76428653 144.07172163 49.74306406 142.44994687 49.72900391 140.828125 C49.70755128 138.49407895 49.66089425 136.16167739 49.609375 133.828125 C49.60814636 133.10506165 49.60691772 132.38199829 49.60565186 131.63702393 C49.50965206 128.32449153 49.24922383 126.34146627 47.27441406 123.63574219 C44.70487387 121.64936871 44.70487387 121.64936871 40 120 C40 113.4 40 106.8 40 100 C44.44335938 99.70703125 44.44335938 99.70703125 48.88671875 99.4140625 C52.61644059 98.91801417 55.92615192 98.38066182 58.3125 95.3125 C59.28978039 92.02528415 59.36537233 89.41014174 59 86 C56.78136971 83.09282927 55.48055071 82.16018357 52 81 C49.56219623 80.84730819 47.14716099 80.74317303 44.70703125 80.68359375 C44.00100266 80.66281265 43.29497406 80.64203156 42.56755066 80.62062073 C40.31596449 80.55532509 38.06426338 80.49633353 35.8125 80.4375 C34.2844934 80.39429575 32.75649836 80.35068084 31.22851562 80.30664062 C27.48579311 80.1988925 23.74298121 80.09967145 20 80 C20 73.4 20 66.8 20 60 C24.44335938 59.70703125 24.44335938 59.70703125 28.88671875 59.4140625 C32.61644059 58.91801417 35.92615192 58.38066182 38.3125 55.3125 C39.28978039 52.02528415 39.36537233 49.41014174 39 46 C36.78136971 43.09282927 35.48055071 42.16018357 32 41 C29.56241966 40.84732218 27.14697334 40.74309744 24.70703125 40.68359375 C23.41514893 40.64548584 22.1232666 40.60737793 20.79223633 40.56811523 C18.32726685 40.50346069 18.32726685 40.50346069 15.8125 40.4375 C10.594375 40.293125 5.37625 40.14875 0 40 C0 26.8 0 13.6 0 0 Z " fill="#B5BBCE" transform="translate(60,266)"/>
<path d="M0 0 C1.01823853 0.00215515 2.03647705 0.0043103 3.08557129 0.00653076 C17.7097884 0.05623391 32.00304638 0.37042012 46.375 3.3125 C47.37160645 3.50585938 48.36821289 3.69921875 49.39501953 3.8984375 C88.01368568 11.52914208 124.14015454 27.25047736 155.375 51.3125 C156.18710937 51.93253906 156.99921875 52.55257812 157.8359375 53.19140625 C174.90108372 66.51514029 191.26144896 82.13175144 204.10107422 99.59423828 C205.39750666 101.34285682 206.72788718 103.06078803 208.06640625 104.77734375 C215.93067241 114.9920598 222.3161092 125.94975258 228.375 137.3125 C229.03846436 138.55314209 229.03846436 138.55314209 229.71533203 139.81884766 C241.23204842 161.72199262 248.9030584 186.01309889 253.375 210.3125 C253.53581055 211.11316895 253.69662109 211.91383789 253.86230469 212.73876953 C259.73561688 242.76532126 258.6851142 277.46465824 252.375 307.3125 C252.15537598 308.35438477 251.93575195 309.39626953 251.70947266 310.46972656 C246.20678448 335.69719578 237.03935749 359.32108908 224.75 382 C224.31913086 382.80115234 223.88826172 383.60230469 223.44433594 384.42773438 C215.48917834 398.75541083 215.48917834 398.75541083 210.375 401.3125 C203.24269231 402.01403846 203.24269231 402.01403846 199.4375 398.9375 C196.20645028 394.8252549 195.87302876 392.57796916 196.375 387.3125 C197.74547169 384.14697622 199.54318128 381.29215261 201.375 378.375 C202.39526334 376.67778235 203.41215249 374.97853209 204.42578125 373.27734375 C205.18109131 372.01639893 205.18109131 372.01639893 205.95166016 370.72998047 C212.87130385 358.97726832 217.88129268 346.52400006 222.50390625 333.72070312 C223.25809198 331.63570088 224.03229646 329.55971641 224.8125 327.484375 C231.88811042 307.76111096 233.98090632 287.06131187 236.375 266.3125 C93.815 266.3125 -48.745 266.3125 -195.625 266.3125 C-195.625 279.5125 -195.625 292.7125 -195.625 306.3125 C-185.3637715 306.19412731 -185.3637715 306.19412731 -175.10302734 306.04223633 C-173.17644287 306.03099731 -173.17644287 306.03099731 -171.2109375 306.01953125 C-169.9017334 306.0038208 -168.5925293 305.98811035 -167.24365234 305.97192383 C-163.31596869 306.34158505 -160.94897034 307.21948239 -157.625 309.3125 C-155.14113941 313.03829089 -155.2445788 314.89961402 -155.625 319.3125 C-156.94970912 322.44996898 -157.79558434 323.89049098 -160.84375 325.44140625 C-164.02189712 326.43680907 -166.61459837 326.51053081 -169.9375 326.4375 C-171.814375 326.39625 -173.69125 326.355 -175.625 326.3125 C-175.625 332.9125 -175.625 339.5125 -175.625 346.3125 C-173.38460937 346.27769531 -171.14421875 346.24289062 -168.8359375 346.20703125 C-166.65154289 346.18359454 -164.46716262 346.16540151 -162.28271484 346.14770508 C-160.77158273 346.13267457 -159.26049382 346.11224436 -157.74951172 346.08618164 C-155.56987813 346.04954311 -153.39082425 346.03271662 -151.2109375 346.01953125 C-149.9017334 346.0038208 -148.5925293 345.98811035 -147.24365234 345.97192383 C-143.31596869 346.34158505 -140.94897034 347.21948239 -137.625 349.3125 C-135.14113941 353.03829089 -135.2445788 354.89961402 -135.625 359.3125 C-136.94970912 362.44996898 -137.79558434 363.89049098 -140.84375 365.44140625 C-144.02189712 366.43680907 -146.61459837 366.51053081 -149.9375 366.4375 C-151.814375 366.39625 -153.69125 366.355 -155.625 366.3125 C-155.625 372.9125 -155.625 379.5125 -155.625 386.3125 C-153.315 386.9725 -151.005 387.6325 -148.625 388.3125 C-145.77952308 390.73772521 -145.64194498 392.13462022 -145.28442383 395.88769531 C-145.28489597 397.30542728 -145.30167855 398.72321791 -145.33203125 400.140625 C-145.33627609 400.88963074 -145.34052094 401.63863647 -145.34489441 402.41033936 C-145.36164254 404.79476375 -145.39928603 407.17833253 -145.4375 409.5625 C-145.45255191 411.18227943 -145.46623943 412.80207215 -145.47851562 414.421875 C-145.5115332 418.38574466 -145.56328754 422.34897743 -145.625 426.3125 C-144.47987442 426.30250725 -144.47987442 426.30250725 -143.31161499 426.29231262 C-136.10259268 426.23209838 -128.89369302 426.18647344 -121.68448448 426.15706348 C-117.97851166 426.141435 -114.27274736 426.12024881 -110.56689453 426.08618164 C-106.98775825 426.05348681 -103.40882202 426.03562581 -99.82954788 426.02786827 C-98.46684243 426.02234284 -97.10414741 426.01155296 -95.74152756 425.99530983 C-93.82698069 425.97340364 -91.91223075 425.97227347 -89.99755859 425.97192383 C-88.90945892 425.96526199 -87.82135925 425.95860016 -86.70028687 425.95173645 C-83.08851572 426.37543526 -80.71860975 427.42208766 -77.625 429.3125 C-75.14113941 433.03829089 -75.2445788 434.89961402 -75.625 439.3125 C-76.94970912 442.44996898 -77.79558434 443.89049098 -80.84375 445.44140625 C-84.02189712 446.43680907 -86.61459837 446.51053081 -89.9375 446.4375 C-91.814375 446.39625 -93.69125 446.355 -95.625 446.3125 C-95.625 452.9125 -95.625 459.5125 -95.625 466.3125 C-91.18160156 466.26029297 -91.18160156 466.26029297 -86.6484375 466.20703125 C-83.76905277 466.18361309 -80.88967877 466.16540936 -78.01025391 466.14770508 C-76.01411159 466.13264902 -74.01800219 466.11219973 -72.02197266 466.08618164 C-69.14737815 466.04965839 -66.27322228 466.03274163 -63.3984375 466.01953125 C-62.06684097 465.99630547 -62.06684097 465.99630547 -60.70834351 465.97261047 C-55.60153052 465.97123358 -52.01436133 466.39833575 -47.625 469.3125 C-45.09724649 473.10413027 -45.40056965 476.12124031 -45.5 480.5 C-45.50902344 481.24958984 -45.51804688 481.99917969 -45.52734375 482.77148438 C-45.55087422 484.61862654 -45.58674439 486.46560412 -45.625 488.3125 C-45.035979 488.36784912 -44.44695801 488.42319824 -43.84008789 488.48022461 C-41.12248485 488.73603973 -38.40499254 488.99301378 -35.6875 489.25 C-34.76130859 489.33701172 -33.83511719 489.42402344 -32.88085938 489.51367188 C-31.96240234 489.60068359 -31.04394531 489.68769531 -30.09765625 489.77734375 C-29.16453613 489.86508057 -28.23141602 489.95281738 -27.27001953 490.04321289 C-25.68518355 490.20456365 -24.10173783 490.3829368 -22.52294922 490.59545898 C-15.35104744 491.55695341 -8.1486521 491.49857058 -0.92626953 491.49780273 C1.34231939 491.4999688 3.61040424 491.51811887 5.87890625 491.53710938 C50.24217791 491.71360948 99.21603933 477.37518152 134.375 449.6875 C138.45339095 446.61940955 141.30307605 445.30869331 146.43359375 445.859375 C149.38849312 446.5490497 151.14186278 447.21470443 153.375 449.3125 C155.18705648 453.23862238 155.53650421 455.50497895 154.6875 459.75 C149.82047707 469.21014413 135.43080556 475.17214769 126.375 480.3125 C125.30765625 480.92013184 125.30765625 480.92013184 124.21875 481.54003906 C98.0205767 496.28804243 69.08235906 505.8198158 39.375 510.3125 C38.25254883 510.48910156 37.13009766 510.66570312 35.97363281 510.84765625 C24.35994336 512.50464124 12.84360984 512.7080238 1.125 512.6875 C0.1173056 512.68795319 -0.89038879 512.68840637 -1.92861938 512.68887329 C-18.42392144 512.66713863 -34.4519871 511.82589858 -50.625 508.3125 C-52.12474365 508.00046631 -52.12474365 508.00046631 -53.65478516 507.68212891 C-54.63108887 507.45315918 -55.60739258 507.22418945 -56.61328125 506.98828125 C-57.48122314 506.78759033 -58.34916504 506.58689941 -59.2434082 506.38012695 C-62.51385141 504.91404308 -63.79068291 503.3858295 -65.625 500.3125 C-66.015625 496.76171875 -66.015625 496.76171875 -65.875 493 C-65.83890625 491.74574219 -65.8028125 490.49148438 -65.765625 489.19921875 C-65.71921875 488.24660156 -65.6728125 487.29398437 -65.625 486.3125 C-66.17766037 486.32360306 -66.73032074 486.33470612 -67.29972839 486.34614563 C-73.05845965 486.45687269 -78.81688796 486.53222184 -84.57641602 486.5871582 C-86.72497849 486.61228285 -88.87345565 486.64638861 -91.02172852 486.68969727 C-94.11235612 486.75043792 -97.20185263 486.77873044 -100.29296875 486.80078125 C-101.25148239 486.82658768 -102.20999603 486.8523941 -103.19755554 486.87898254 C-107.61514352 486.88083509 -109.96610191 486.74006083 -113.74023438 484.29101562 C-116.12611067 480.52058936 -116.26399083 477.48826091 -116.11328125 473.16796875 C-116.10266914 472.0132885 -116.10266914 472.0132885 -116.09184265 470.83528137 C-116.06396925 468.38917697 -116.00125137 465.94540616 -115.9375 463.5 C-115.91240768 461.83662173 -115.88959613 460.17320738 -115.86914062 458.50976562 C-115.81416671 454.44311843 -115.72794927 450.37820411 -115.625 446.3125 C-116.17766037 446.32360306 -116.73032074 446.33470612 -117.29972839 446.34614563 C-123.05845965 446.45687269 -128.81688796 446.53222184 -134.57641602 446.5871582 C-136.72497849 446.61228285 -138.87345565 446.64638861 -141.02172852 446.68969727 C-144.11235612 446.75043792 -147.20185263 446.77873044 -150.29296875 446.80078125 C-151.25148239 446.82658768 -152.20999603 446.8523941 -153.19755554 446.87898254 C-157.61514352 446.88083509 -159.96610191 446.74006083 -163.74023438 444.29101562 C-166.12611067 440.52058936 -166.26399083 437.48826091 -166.11328125 433.16796875 C-166.10620651 432.39818192 -166.09913177 431.62839508 -166.09184265 430.83528137 C-166.06396925 428.38917697 -166.00125137 425.94540616 -165.9375 423.5 C-165.91240768 421.83662173 -165.88959613 420.17320738 -165.86914062 418.50976562 C-165.81416671 414.44311843 -165.72794927 410.37820411 -165.625 406.3125 C-166.30294113 406.32360306 -166.98088226 406.33470612 -167.67936707 406.34614563 C-174.73573634 406.45676787 -181.7918593 406.53217988 -188.84887695 406.5871582 C-191.48244227 406.61230157 -194.11593782 406.64642084 -196.74926758 406.68969727 C-200.53484309 406.7503521 -204.31949598 406.7787127 -208.10546875 406.80078125 C-209.8713459 406.83949089 -209.8713459 406.83949089 -211.67289734 406.87898254 C-220.77972932 406.88210696 -220.77972932 406.88210696 -223.8659668 403.93823242 C-225.76191425 401.10812626 -226.30274384 399.68810547 -226.25 396.3125 C-226.26289063 395.4875 -226.27578125 394.6625 -226.2890625 393.8125 C-225.28468278 390.03130576 -223.73309476 388.68970972 -220.625 386.3125 C-217.17406167 385.62399455 -213.79998483 385.72979802 -210.29296875 385.82421875 C-209.30122147 385.83129349 -208.30947418 385.83836823 -207.28767395 385.84565735 C-204.12850658 385.87358567 -200.97112918 385.9363228 -197.8125 386 C-195.66734335 386.02508482 -193.52215885 386.04789766 -191.37695312 386.06835938 C-186.12506234 386.11915136 -180.87702791 386.21700858 -175.625 386.3125 C-175.625 379.7125 -175.625 373.1125 -175.625 366.3125 C-178.0848938 366.35177612 -178.0848938 366.35177612 -180.59448242 366.3918457 C-186.6791418 366.48234963 -192.76374169 366.53975142 -198.84887695 366.5871582 C-201.48244227 366.61230157 -204.11593782 366.64642084 -206.74926758 366.68969727 C-210.53484309 366.7503521 -214.31949598 366.7787127 -218.10546875 366.80078125 C-219.8713459 366.83949089 -219.8713459 366.83949089 -221.67289734 366.87898254 C-230.77972932 366.88210696 -230.77972932 366.88210696 -233.8659668 363.93823242 C-235.76191425 361.10812626 -236.30274384 359.68810547 -236.25 356.3125 C-236.26289063 355.4875 -236.27578125 354.6625 -236.2890625 353.8125 C-235.30753462 350.1173362 -233.59368594 348.68769299 -230.625 346.3125 C-227.70113709 345.87349572 -225.38459055 345.72291103 -222.48046875 345.82421875 C-221.71068192 345.83129349 -220.94089508 345.83836823 -220.14778137 345.84565735 C-217.70167697 345.87353075 -215.25790616 345.93624863 -212.8125 346 C-211.14912173 346.02509232 -209.48570738 346.04790387 -207.82226562 346.06835938 C-203.7548998 346.11907466 -199.69254472 346.21691801 -195.625 346.3125 C-195.625 339.7125 -195.625 333.1125 -195.625 326.3125 C-198.81542969 326.37050781 -202.00585938 326.42851562 -205.29296875 326.48828125 C-208.38742589 326.52728946 -211.48185551 326.55764122 -214.57641602 326.5871582 C-216.72497849 326.61228285 -218.87345565 326.64638861 -221.02172852 326.68969727 C-224.11235612 326.75043792 -227.20185263 326.77873044 -230.29296875 326.80078125 C-231.25148239 326.82658768 -232.20999603 326.8523941 -233.19755554 326.87898254 C-237.8538085 326.88093518 -239.9300988 326.84399148 -243.72924805 323.93823242 C-245.78038488 321.09728243 -246.30410293 319.77508768 -246.25 316.3125 C-246.26289063 315.4875 -246.27578125 314.6625 -246.2890625 313.8125 C-245.625 311.3125 -245.625 311.3125 -240.625 306.3125 C-232.375 306.3125 -224.125 306.3125 -215.625 306.3125 C-215.625 283.2125 -215.625 260.1125 -215.625 236.3125 C-227.175 236.3125 -238.725 236.3125 -250.625 236.3125 C-255.625 231.3125 -255.625 231.3125 -256.2890625 228.8125 C-256.26972656 227.575 -256.26972656 227.575 -256.25 226.3125 C-256.26289063 225.4875 -256.27578125 224.6625 -256.2890625 223.8125 C-255.30753462 220.1173362 -253.59368594 218.68769299 -250.625 216.3125 C-247.70113709 215.87349572 -245.38459055 215.72291103 -242.48046875 215.82421875 C-241.3257885 215.83483086 -241.3257885 215.83483086 -240.14778137 215.84565735 C-237.70167697 215.87353075 -235.25790616 215.93624863 -232.8125 216 C-231.14912173 216.02509232 -229.48570738 216.04790387 -227.82226562 216.06835938 C-223.75561843 216.12333329 -219.69070411 216.20955073 -215.625 216.3125 C-215.64165459 215.48350945 -215.64165459 215.48350945 -215.65864563 214.63777161 C-215.76937269 208.87904035 -215.84472184 203.12061204 -215.8996582 197.36108398 C-215.92478285 195.21252151 -215.95888861 193.06404435 -216.00219727 190.91577148 C-216.06293792 187.82514388 -216.09123044 184.73564737 -216.11328125 181.64453125 C-216.13908768 180.68601761 -216.1648941 179.72750397 -216.19148254 178.73994446 C-216.19333509 174.32235648 -216.05256083 171.97139809 -213.60351562 168.19726562 C-209.83308936 165.81138933 -206.80076091 165.67350917 -202.48046875 165.82421875 C-201.3257885 165.83483086 -201.3257885 165.83483086 -200.14778137 165.84565735 C-197.70167697 165.87353075 -195.25790616 165.93624863 -192.8125 166 C-191.14912173 166.02509232 -189.48570738 166.04790387 -187.82226562 166.06835938 C-183.7548998 166.11907466 -179.69254472 166.21691801 -175.625 166.3125 C-175.625 159.7125 -175.625 153.1125 -175.625 146.3125 C-179.32783203 146.39951172 -179.32783203 146.39951172 -183.10546875 146.48828125 C-185.50493154 146.52731111 -187.90435853 146.55765013 -190.30395508 146.5871582 C-191.96752839 146.61225347 -193.63099196 146.64633796 -195.29418945 146.68969727 C-197.68989153 146.7505746 -200.08413251 146.77875769 -202.48046875 146.80078125 C-203.2202446 146.82658768 -203.96002045 146.8523941 -204.72221375 146.87898254 C-208.72019142 146.88113841 -210.43072443 146.46793644 -213.5925293 143.93823242 C-215.79814331 141.08881756 -216.30546828 139.86246962 -216.25 136.3125 C-216.26289063 135.4875 -216.27578125 134.6625 -216.2890625 133.8125 C-215.30998947 130.126578 -213.58106606 128.6832307 -210.625 126.3125 C-207.7862599 125.94478755 -205.60679849 125.82619196 -202.8125 126 C-202.11962891 126.02255859 -201.42675781 126.04511719 -200.71289062 126.06835938 C-199.01598427 126.12687339 -197.32020139 126.2165452 -195.625 126.3125 C-195.65118408 125.27843018 -195.67736816 124.24436035 -195.7043457 123.17895508 C-195.79506423 119.33070641 -195.85232659 115.4825516 -195.8996582 111.63354492 C-195.92475347 109.96997161 -195.95883796 108.30650804 -196.00219727 106.64331055 C-196.0630746 104.24760847 -196.09125769 101.85336749 -196.11328125 99.45703125 C-196.13908768 98.7172554 -196.1648941 97.97747955 -196.19148254 97.21528625 C-196.1935076 93.45988418 -195.72648914 91.46203714 -193.60351562 88.33398438 C-189.84020587 85.77986923 -186.86955276 85.67110943 -182.48046875 85.82421875 C-181.71068192 85.83129349 -180.94089508 85.83836823 -180.14778137 85.84565735 C-177.70167697 85.87353075 -175.25790616 85.93624863 -172.8125 86 C-171.14912173 86.02509232 -169.48570738 86.04790387 -167.82226562 86.06835938 C-163.75561843 86.12333329 -159.69070411 86.20955073 -155.625 86.3125 C-155.69569702 84.87583984 -155.69569702 84.87583984 -155.76782227 83.41015625 C-155.93185952 79.82516463 -156.03443165 76.24049641 -156.11938477 72.65283203 C-156.16439461 71.10636469 -156.22563085 69.56027504 -156.30395508 68.01513672 C-156.93179209 55.30246314 -156.93179209 55.30246314 -153.88916016 50.66918945 C-151.58538648 48.56642789 -149.28306855 46.93925954 -146.625 45.3125 C-145.54424194 44.54945557 -145.54424194 44.54945557 -144.44165039 43.77099609 C-142.29390225 42.26903615 -140.10548708 40.87572264 -137.875 39.5 C-136.65345215 38.741427 -136.65345215 38.741427 -135.40722656 37.9675293 C-109.27918223 21.97467778 -81.38072453 10.95634155 -51.4375 4.5625 C-50.51267822 4.36366211 -49.58785645 4.16482422 -48.63500977 3.95996094 C-32.4283142 0.66808618 -16.49462039 -0.06280274 0 0 Z M-13.06835938 20.33447266 C-34.24269234 20.62446468 -55.66598263 25.45060863 -75.625 32.3125 C-76.64279541 32.654021 -76.64279541 32.654021 -77.68115234 33.00244141 C-95.67574757 39.10088004 -113.07784158 47.5817607 -128.86450195 58.15820312 C-130.625 59.3125 -130.625 59.3125 -133.60546875 60.8984375 C-137.05575936 65.0227694 -136.14123057 69.89087777 -135.9375 75.0625 C-135.90366211 76.68091797 -135.90366211 76.68091797 -135.86914062 78.33203125 C-135.8102565 80.9935935 -135.72807001 83.65234228 -135.625 86.3125 C-134.68180908 86.33231934 -133.73861816 86.35213867 -132.7668457 86.37255859 C-129.25356966 86.45084766 -125.74070736 86.53754698 -122.2277832 86.62988281 C-120.70996022 86.66806704 -119.19204999 86.70293808 -117.67407227 86.734375 C-115.48682569 86.78025628 -113.30017418 86.83821029 -111.11328125 86.8984375 C-109.79884033 86.9298584 -108.48439941 86.9612793 -107.13012695 86.99365234 C-103.81048116 87.29562751 -101.54590834 87.73947432 -98.625 89.3125 C-96.15748761 93.01376859 -96.31778844 94.93473532 -96.625 99.3125 C-97.3125 101.625 -97.3125 101.625 -98.625 103.3125 C-102.72024816 105.39622356 -106.2456064 105.58346959 -110.80200195 105.63134766 C-111.50498917 105.64139328 -112.20797638 105.6514389 -112.93226624 105.66178894 C-115.24259669 105.69253808 -117.55281171 105.70963272 -119.86328125 105.7265625 C-121.47040291 105.74528084 -123.07751481 105.76485475 -124.68461609 105.7852478 C-128.90461465 105.83650481 -133.12464505 105.87616484 -137.3447876 105.91339111 C-141.65506831 105.95347117 -145.9652173 106.00454523 -150.27539062 106.0546875 C-158.72517694 106.15137068 -167.17501793 106.23478304 -175.625 106.3125 C-175.625 112.9125 -175.625 119.5125 -175.625 126.3125 C-173.37300781 126.36148438 -171.12101562 126.41046875 -168.80078125 126.4609375 C-166.60971674 126.51501196 -164.41875782 126.57229391 -162.2277832 126.62988281 C-160.70996022 126.66806704 -159.19204999 126.70293808 -157.67407227 126.734375 C-155.48682569 126.78025628 -153.30017418 126.83821029 -151.11328125 126.8984375 C-149.79884033 126.9298584 -148.48439941 126.9612793 -147.13012695 126.99365234 C-143.81048116 127.29562751 -141.54590834 127.73947432 -138.625 129.3125 C-136.15748761 133.01376859 -136.31778844 134.93473532 -136.625 139.3125 C-137.3125 141.625 -137.3125 141.625 -138.625 143.3125 C-144.10797403 145.98544984 -149.61353792 145.91613986 -155.625 146.3125 C-155.625 152.9125 -155.625 159.5125 -155.625 166.3125 C-153.37300781 166.36148438 -151.12101562 166.41046875 -148.80078125 166.4609375 C-146.60971674 166.51501196 -144.41875782 166.57229391 -142.2277832 166.62988281 C-140.70996022 166.66806704 -139.19204999 166.70293808 -137.67407227 166.734375 C-135.48682569 166.78025628 -133.30017418 166.83821029 -131.11328125 166.8984375 C-129.79884033 166.9298584 -128.48439941 166.9612793 -127.13012695 166.99365234 C-123.81048116 167.29562751 -121.54590834 167.73947432 -118.625 169.3125 C-116.15748761 173.01376859 -116.31778844 174.93473532 -116.625 179.3125 C-117.3125 181.625 -117.3125 181.625 -118.625 183.3125 C-122.72024816 185.39622356 -126.2456064 185.58346959 -130.80200195 185.63134766 C-131.85648277 185.64641609 -131.85648277 185.64641609 -132.93226624 185.66178894 C-135.24259669 185.69253808 -137.55281171 185.70963272 -139.86328125 185.7265625 C-141.47040291 185.74528084 -143.07751481 185.76485475 -144.68461609 185.7852478 C-148.90461465 185.83650481 -153.12464505 185.87616484 -157.3447876 185.91339111 C-162.4135398 185.96052398 -167.48213481 186.02209419 -172.55075836 186.08123779 C-180.24210856 186.16937167 -187.93342984 186.23919183 -195.625 186.3125 C-195.625 206.1125 -195.625 225.9125 -195.625 246.3125 C-53.395 246.3125 88.835 246.3125 235.375 246.3125 C235.375 183.90476762 206.25171837 129.02097475 163.375 85.125 C139.39392818 61.51863243 109.67007466 45.00638911 78.375 33.3125 C77.60897461 33.02600586 76.84294922 32.73951172 76.05371094 32.44433594 C64.36962223 28.1471483 52.61957489 25.47346804 40.375 23.3125 C39.21742188 23.09722656 38.05984375 22.88195312 36.8671875 22.66015625 C20.30234539 19.69751478 3.68751134 20.18379037 -13.06835938 20.33447266 Z " fill="#000000" transform="translate(255.625,-0.3125)"/>
<path d="M0 0 C1.66386137 1.31076713 3.31095164 2.64320761 4.9375 4 C5.71222656 4.61359375 6.48695313 5.2271875 7.28515625 5.859375 C21.64103862 17.77746602 30.47278852 35.11592971 34.9375 53 C35.12957031 53.7425 35.32164062 54.485 35.51953125 55.25 C38.90804139 77.54449664 33.98066086 100.64257263 20.9375 119.0625 C19.62673287 120.72636137 18.29429239 122.37345164 16.9375 124 C16.01710938 125.16208984 16.01710938 125.16208984 15.078125 126.34765625 C4.5126099 139.07429944 -11.89292913 149.10407079 -28.0625 153 C-28.8771875 153.20238281 -29.691875 153.40476563 -30.53125 153.61328125 C-54.22887821 158.50590955 -75.66348888 153.7196592 -95.97265625 141.20703125 C-98.41783134 139.55549877 -100.74890954 137.83057772 -103.0625 136 C-104.19558594 135.11248047 -104.19558594 135.11248047 -105.3515625 134.20703125 C-118.09267825 123.58943479 -128.15441969 107.22000248 -132.0625 91 C-132.26488281 90.1853125 -132.46726563 89.370625 -132.67578125 88.53125 C-137.56840955 64.83362179 -132.7821592 43.39901112 -120.26953125 23.08984375 C-118.61799877 20.64466866 -116.89307772 18.31359046 -115.0625 16 C-114.47082031 15.24460937 -113.87914062 14.48921875 -113.26953125 13.7109375 C-101.29289495 -0.66102606 -84.00370078 -9.52102604 -66.0625 -14 C-65.32 -14.19207031 -64.5775 -14.38414063 -63.8125 -14.58203125 C-41.51800336 -17.97054139 -18.41992737 -13.04316086 0 0 Z " fill="#F7F7F7" transform="translate(363.0625,71)"/>
<path d="M0 0 C1.66386137 1.31076713 3.31095164 2.64320761 4.9375 4 C5.71222656 4.61359375 6.48695313 5.2271875 7.28515625 5.859375 C21.64103862 17.77746602 30.47278852 35.11592971 34.9375 53 C35.12957031 53.7425 35.32164062 54.485 35.51953125 55.25 C38.90804139 77.54449664 33.98066086 100.64257263 20.9375 119.0625 C19.62673287 120.72636137 18.29429239 122.37345164 16.9375 124 C16.01710938 125.16208984 16.01710938 125.16208984 15.078125 126.34765625 C4.5126099 139.07429944 -11.89292913 149.10407079 -28.0625 153 C-28.8771875 153.20238281 -29.691875 153.40476563 -30.53125 153.61328125 C-54.22887821 158.50590955 -75.66348888 153.7196592 -95.97265625 141.20703125 C-98.41783134 139.55549877 -100.74890954 137.83057772 -103.0625 136 C-104.19558594 135.11248047 -104.19558594 135.11248047 -105.3515625 134.20703125 C-118.09267825 123.58943479 -128.15441969 107.22000248 -132.0625 91 C-132.26488281 90.1853125 -132.46726563 89.370625 -132.67578125 88.53125 C-137.56840955 64.83362179 -132.7821592 43.39901112 -120.26953125 23.08984375 C-118.61799877 20.64466866 -116.89307772 18.31359046 -115.0625 16 C-114.47082031 15.24460937 -113.87914062 14.48921875 -113.26953125 13.7109375 C-101.29289495 -0.66102606 -84.00370078 -9.52102604 -66.0625 -14 C-65.32 -14.19207031 -64.5775 -14.38414063 -63.8125 -14.58203125 C-41.51800336 -17.97054139 -18.41992737 -13.04316086 0 0 Z M-96.0625 25 C-96.68640625 25.59039062 -97.3103125 26.18078125 -97.953125 26.7890625 C-109.51663923 38.61301624 -114.59512977 55.60624671 -114.48266602 71.73608398 C-113.93293099 89.54012217 -106.6569453 104.53812781 -94.0625 117 C-93.47210938 117.62390625 -92.88171875 118.2478125 -92.2734375 118.890625 C-80.25923696 130.64019558 -63.11145241 135.5384595 -46.7590332 135.49267578 C-29.26867738 134.96598593 -14.33623274 127.23162731 -2.0625 115 C-1.42441406 114.38511719 -0.78632813 113.77023438 -0.12890625 113.13671875 C11.49798656 101.04371443 16.60383533 83.45691992 16.40820312 67.04174805 C15.75264397 49.72696631 8.12308042 35.05731115 -4.0625 23 C-4.65289062 22.37609375 -5.24328125 21.7521875 -5.8515625 21.109375 C-17.93609779 9.2910189 -35.07832185 4.47177441 -51.51098633 4.57983398 C-69.06225402 5.09445195 -83.82655858 12.63388899 -96.0625 25 Z " fill="#020203" transform="translate(363.0625,71)"/>
<path d="M0 0 C8.36478815 5.20537566 14.23495801 12.09806356 17.25 21.5625 C19.25822558 32.08177684 17.49121703 41.42994144 11.91015625 50.3984375 C6.8114145 57.60700342 -0.00284807 63.13457041 -8.6953125 65.296875 C-20.00746873 67.06805456 -29.18103798 65.47062165 -38.58984375 58.9609375 C-45.58993457 53.36086484 -50.87661841 45.61864264 -52.33984375 36.7109375 C-53.25275365 25.29208084 -51.27181241 16.50657863 -44.02734375 7.5234375 C-32.3234672 -5.04739287 -15.18236849 -8.36424308 0 0 Z " fill="#030303" transform="translate(331.33984375,110.2890625)"/>
<path d="M0 0 C1.30192795 -0.00960754 2.6038559 -0.01921509 3.94523621 -0.02911377 C5.37926052 -0.03396286 6.81328685 -0.03824141 8.24731445 -0.04199219 C9.71124779 -0.04774298 11.1751811 -0.05350072 12.63911438 -0.05926514 C15.71514233 -0.06978803 18.79114407 -0.0756214 21.8671875 -0.07910156 C25.80031939 -0.08457142 29.73310246 -0.10856121 33.6661253 -0.13707352 C36.69367972 -0.15574646 39.72115119 -0.16090809 42.74875832 -0.16243744 C44.19797473 -0.16545695 45.64718992 -0.17346177 47.09634972 -0.18662262 C49.13056919 -0.20376906 51.16493229 -0.19994568 53.19921875 -0.1953125 C54.35536179 -0.19895813 55.51150482 -0.20260376 56.7026825 -0.20635986 C60.39177099 0.214615 62.77104539 1.22052864 65.9230957 3.16113281 C68.40695629 6.8869237 68.30351691 8.74824684 67.9230957 13.16113281 C66.60257025 16.28869309 65.76041935 17.73657573 62.71899414 19.27870178 C59.47960335 20.30110622 56.77308545 20.43600003 53.3762207 20.4675293 C51.41894043 20.49151039 51.41894043 20.49151039 49.42211914 20.51597595 C48.00578199 20.52235168 46.58944012 20.52774473 45.1730957 20.53222656 C43.71248281 20.54119929 42.25187083 20.55032125 40.79125977 20.55958557 C37.73492198 20.57604391 34.67869337 20.58377036 31.62231445 20.58666992 C27.7113318 20.59206228 23.8013778 20.62978907 19.89068604 20.67541409 C16.87601996 20.70518863 13.86160208 20.71239348 10.84680176 20.71339607 C9.40510324 20.71759473 7.96340374 20.73001512 6.52185059 20.75091362 C4.50473446 20.7778387 2.48724464 20.76989408 0.4699707 20.76049805 C-1.24947754 20.76810402 -1.24947754 20.76810402 -3.00366211 20.77586365 C-7.01694235 19.9731 -8.49832125 18.2596899 -11.0769043 15.16113281 C-12.64626023 12.02242094 -12.42891533 9.62257459 -12.0769043 6.16113281 C-9.6394043 3.28613281 -9.6394043 3.28613281 -7.0769043 1.16113281 C-5.26143661 -0.65433488 -2.44284307 0.01447687 0 0 Z " fill="#010101" transform="translate(211.076904296875,375.8388671875)"/>
<path d="M0 0 C0.90151291 -0.00960754 1.80302582 -0.01921509 2.7318573 -0.02911377 C3.71406754 -0.03336365 4.69627777 -0.03761353 5.70825195 -0.04199219 C6.71362503 -0.04769226 7.71899811 -0.05339233 8.75483704 -0.05926514 C10.88928164 -0.06873396 13.02374098 -0.07525655 15.15820312 -0.07910156 C18.41538333 -0.08877468 21.67192403 -0.1197671 24.92895508 -0.15136719 C27.00121695 -0.15790021 29.07348335 -0.16314951 31.14575195 -0.16699219 C32.60388557 -0.18551239 32.60388557 -0.18551239 34.09147644 -0.20440674 C39.38351829 -0.18709245 43.23122346 0.09499327 47.7590332 3.16113281 C50.24289379 6.8869237 50.13945441 8.74824684 49.7590332 13.16113281 C48.50110501 16.14043643 47.61832593 17.67415044 44.79418945 19.2746582 C40.33433618 20.57724244 36.00897474 20.50651689 31.3840332 20.53222656 C30.38194824 20.54125504 29.37986328 20.55028351 28.34741211 20.55958557 C26.23269632 20.5740664 24.11793596 20.58296941 22.00317383 20.58666992 C18.76998729 20.59859242 15.53869376 20.64782214 12.3059082 20.69824219 C10.24862583 20.70770397 8.19133177 20.71494018 6.1340332 20.71972656 C5.16933105 20.73925888 4.20462891 20.7587912 3.21069336 20.77891541 C-1.46355856 20.74750494 -3.54171375 20.70720297 -7.3269043 17.7512207 C-10.34319383 13.66961156 -10.7616466 11.28115087 -10.2409668 6.16113281 C-7.8034668 3.28613281 -7.8034668 3.28613281 -5.2409668 1.16113281 C-3.68183649 -0.39799749 -2.16801185 0.01857674 0 0 Z " fill="#010102" transform="translate(299.240966796875,415.8388671875)"/>
<path d="M0 0 C0.90151291 -0.00960754 1.80302582 -0.01921509 2.7318573 -0.02911377 C3.71406754 -0.03336365 4.69627777 -0.03761353 5.70825195 -0.04199219 C6.71362503 -0.04769226 7.71899811 -0.05339233 8.75483704 -0.05926514 C10.88928164 -0.06873396 13.02374098 -0.07525655 15.15820312 -0.07910156 C18.41538333 -0.08877468 21.67192403 -0.1197671 24.92895508 -0.15136719 C27.00121695 -0.15790021 29.07348335 -0.16314951 31.14575195 -0.16699219 C32.60388557 -0.18551239 32.60388557 -0.18551239 34.09147644 -0.20440674 C39.38351829 -0.18709245 43.23122346 0.09499327 47.7590332 3.16113281 C50.24289379 6.8869237 50.13945441 8.74824684 49.7590332 13.16113281 C48.50110501 16.14043643 47.61832593 17.67415044 44.79418945 19.2746582 C40.33433618 20.57724244 36.00897474 20.50651689 31.3840332 20.53222656 C30.38194824 20.54125504 29.37986328 20.55028351 28.34741211 20.55958557 C26.23269632 20.5740664 24.11793596 20.58296941 22.00317383 20.58666992 C18.76998729 20.59859242 15.53869376 20.64782214 12.3059082 20.69824219 C10.24862583 20.70770397 8.19133177 20.71494018 6.1340332 20.71972656 C5.16933105 20.73925888 4.20462891 20.7587912 3.21069336 20.77891541 C-1.46355856 20.74750494 -3.54171375 20.70720297 -7.3269043 17.7512207 C-10.34319383 13.66961156 -10.7616466 11.28115087 -10.2409668 6.16113281 C-7.8034668 3.28613281 -7.8034668 3.28613281 -5.2409668 1.16113281 C-3.68183649 -0.39799749 -2.16801185 0.01857674 0 0 Z " fill="#010102" transform="translate(139.240966796875,295.8388671875)"/>
<path d="M0 0 C4.36492736 2.40706674 5.93942071 4.83284673 7.8125 9.4375 C8.54520346 14.47483626 7.62027557 18.24512573 5.20703125 22.63671875 C1.89427009 26.91454198 -2.56531496 28.20982491 -7.75 28.9375 C-11.90567414 28.33303831 -15.0494453 27.21048398 -18.1875 24.4375 C-21.62339266 19.77883377 -23.03044428 15.23274192 -22.1875 9.4375 C-20.42898855 4.50534364 -17.74068059 1.40845153 -13.0390625 -0.90234375 C-8.34602817 -2.57559861 -4.45447532 -1.90552555 0 0 Z " fill="#B2B8CB" transform="translate(321.1875,127.5625)"/>
<path d="M0 0 C0.70833984 -0.020625 1.41667969 -0.04125 2.14648438 -0.0625 C6.92845862 -0.09782391 10.17984879 0.59816384 14.3125 3.25 C16.79636059 6.97579089 16.6929212 8.83711402 16.3125 13.25 C15.01633044 16.31987527 14.16259329 17.80374031 11.19921875 19.359375 C7.55525911 20.48362777 4.09138673 20.65612548 0.3125 20.6875 C-0.38617188 20.72037109 -1.08484375 20.75324219 -1.8046875 20.78710938 C-5.81351887 20.82871046 -7.48656468 20.41432875 -10.625 17.84765625 C-13.83318897 13.80703946 -14.21532794 11.4403081 -13.6875 6.25 C-11.25 3.375 -11.25 3.375 -8.6875 1.25 C-6.66913658 -0.76836342 -2.75741767 0.01953883 0 0 Z " fill="#030404" transform="translate(222.6875,415.75)"/>
<path d="M0 0 C0.70833984 -0.020625 1.41667969 -0.04125 2.14648438 -0.0625 C6.92845862 -0.09782391 10.17984879 0.59816384 14.3125 3.25 C16.79636059 6.97579089 16.6929212 8.83711402 16.3125 13.25 C15.01633044 16.31987527 14.16259329 17.80374031 11.19921875 19.359375 C7.55525911 20.48362777 4.09138673 20.65612548 0.3125 20.6875 C-0.38617188 20.72037109 -1.08484375 20.75324219 -1.8046875 20.78710938 C-5.81351887 20.82871046 -7.48656468 20.41432875 -10.625 17.84765625 C-13.83318897 13.80703946 -14.21532794 11.4403081 -13.6875 6.25 C-11.25 3.375 -11.25 3.375 -8.6875 1.25 C-6.66913658 -0.76836342 -2.75741767 0.01953883 0 0 Z " fill="#030404" transform="translate(152.6875,335.75)"/>
<path d="M0 0 C2.1875 1.1875 2.1875 1.1875 4.1875 4.1875 C4.92715025 8.78021203 4.79711194 12.21212089 2.3125 16.1875 C-1.21251289 19.50515919 -3.92419572 19.57705501 -8.6171875 19.546875 C-10.8125 19.1875 -10.8125 19.1875 -13.3125 16.8125 C-15.7328776 12.57683921 -16.23358909 10.15635121 -15.8125 5.1875 C-11.66665501 -1.16946232 -7.32982959 -2.11750633 0 0 Z " fill="#020203" transform="translate(439.8125,416.8125)"/>
</svg>
